<svg id="Capa_1" data-name="Capa 1" xmlns="http://www.w3.org/2000/svg" viewBox="0 0 433.87 135.49"><defs><style>.cls-1,.cls-9{fill:#009245;}.cls-2{fill:blue;}.cls-3{fill:#a30511;}.cls-4{fill:#42210b;}.cls-5{fill:#960b1f;}.cls-6{fill:#f40b0b;stroke:#006837;}.cls-11,.cls-6,.cls-7,.cls-8,.cls-9{stroke-miterlimit:10;}.cls-11,.cls-7{fill:none;}.cls-7,.cls-8{stroke:#000;}.cls-9{stroke:#009245;}.cls-10{fill:#8e0721;}.cls-11{stroke:#c1272d;}</style></defs><title>sintaxis_html</title><path class="cls-1" d="M84.24,117.92l-.11-1h0a2.84,2.84,0,0,1-2.34,1.14,2.18,2.18,0,0,1-2.35-2.21C79.39,114,81,113,84,113v-.16a1.58,1.58,0,0,0-1.74-1.78,3.81,3.81,0,0,0-2,.57l-.32-.92a4.82,4.82,0,0,1,2.53-.68c2.34,0,2.92,1.6,2.92,3.14v2.88a11.52,11.52,0,0,0,.12,1.84ZM84,114c-1.53,0-3.26.23-3.26,1.73a1.24,1.24,0,0,0,1.32,1.33A1.92,1.92,0,0,0,84,115.77a1.7,1.7,0,0,0,.08-.44Z"/><path class="cls-1" d="M89.26,108v2.21h2v1.06h-2v4.14c0,1,.27,1.49,1,1.49a3.48,3.48,0,0,0,.81-.09l.07,1a3.22,3.22,0,0,1-1.24.2,1.94,1.94,0,0,1-1.51-.59,2.83,2.83,0,0,1-.54-2V111.3H86.7v-1.06h1.19v-1.85Z"/><path class="cls-1" d="M92.82,112.63c0-.9,0-1.68-.06-2.39H94l0,1.5h.06a2.31,2.31,0,0,1,2.13-1.68,1.62,1.62,0,0,1,.4,0v1.32a1.73,1.73,0,0,0-.48-.05,2,2,0,0,0-1.87,1.79,4.12,4.12,0,0,0-.06.65v4.1H92.82Z"/><path class="cls-1" d="M99.63,108.08a.82.82,0,0,1-.89.85.83.83,0,0,1-.84-.85.86.86,0,0,1,.88-.88A.83.83,0,0,1,99.63,108.08Zm-1.55,9.84v-7.68h1.39v7.68Z"/><path class="cls-1" d="M101.73,117.92c0-.53.06-1.31.06-2v-9.28h1.38v4.82h0a2.87,2.87,0,0,1,2.62-1.41c1.9,0,3.25,1.59,3.24,3.92,0,2.75-1.73,4.11-3.45,4.11a2.74,2.74,0,0,1-2.57-1.44H103l-.06,1.27Zm1.44-3.08a2.63,2.63,0,0,0,.06.5,2.16,2.16,0,0,0,2.1,1.64c1.46,0,2.33-1.19,2.33-3,0-1.54-.79-2.86-2.28-2.86a2.22,2.22,0,0,0-2.13,1.72,2.69,2.69,0,0,0-.08.57Z"/><path class="cls-1" d="M117.24,115.82c0,.79,0,1.49.07,2.1h-1.24l-.08-1.26h0a2.9,2.9,0,0,1-2.54,1.43c-1.21,0-2.65-.67-2.65-3.36v-4.49h1.4v4.25c0,1.46.44,2.44,1.71,2.44a2,2,0,0,0,2-2v-4.71h1.39Z"/><path class="cls-1" d="M121.24,108v2.21h2v1.06h-2v4.14c0,1,.27,1.49,1.05,1.49a3.63,3.63,0,0,0,.81-.09l.06,1a3.22,3.22,0,0,1-1.24.2,1.92,1.92,0,0,1-1.5-.59,2.83,2.83,0,0,1-.54-2V111.3h-1.19v-1.06h1.19v-1.85Z"/><path class="cls-1" d="M131.67,114a3.76,3.76,0,0,1-3.83,4.08,3.65,3.65,0,0,1-3.68-4,3.75,3.75,0,0,1,3.81-4.08A3.64,3.64,0,0,1,131.67,114Zm-6.1.08c0,1.68,1,3,2.33,3s2.34-1.25,2.34-3c0-1.3-.65-3-2.3-3S125.57,112.63,125.57,114.09Z"/><path class="cls-2" d="M27.78,46.64a2.46,2.46,0,0,0,2.63,2.67,5.08,5.08,0,0,0,2.13-.4l.24,1a6.23,6.23,0,0,1-2.56.48,3.57,3.57,0,0,1-3.77-3.87c0-2.32,1.36-4.14,3.6-4.14,2.51,0,3.17,2.2,3.17,3.61,0,.29,0,.51,0,.65Zm4.09-1a2,2,0,0,0-1.93-2.27,2.32,2.32,0,0,0-2.14,2.27Z"/><path class="cls-2" d="M36.63,40.34v2.21h2v1.06h-2v4.14c0,1,.27,1.5,1,1.5a2.92,2.92,0,0,0,.81-.1l.06,1.05a3.44,3.44,0,0,1-1.23.19,1.93,1.93,0,0,1-1.51-.59,2.82,2.82,0,0,1-.54-2V43.61H34.08V42.55h1.19V40.71Z"/><path class="cls-2" d="M41.76,40.39a.87.87,0,0,1-1.73,0,.85.85,0,0,1,.87-.87A.83.83,0,0,1,41.76,40.39ZM40.2,50.23V42.55h1.4v7.68Z"/><path class="cls-2" d="M49.15,49h0a2.73,2.73,0,0,1-2.51,1.36c-1.79,0-3.25-1.55-3.25-3.88,0-2.88,1.86-4.14,3.47-4.14a2.52,2.52,0,0,1,2.37,1.33h0l.05-1.16H50.6c0,.65-.05,1.32-.05,2.11v8.71h-1.4Zm0-3.38a2.32,2.32,0,0,0-.06-.59,2,2,0,0,0-2-1.58c-1.45,0-2.32,1.22-2.32,2.95,0,1.52.73,2.85,2.27,2.85a2.07,2.07,0,0,0,2-1.52,2.47,2.47,0,0,0,.11-.67Z"/><path class="cls-2" d="M59.27,48.14c0,.79,0,1.49.07,2.09H58.1L58,49h0a2.9,2.9,0,0,1-2.54,1.42c-1.21,0-2.65-.66-2.65-3.36V42.55h1.4V46.8c0,1.46.44,2.45,1.71,2.45A2,2,0,0,0,57.75,48a2.05,2.05,0,0,0,.13-.72V42.55h1.39Z"/><path class="cls-2" d="M62.37,46.64A2.46,2.46,0,0,0,65,49.31a5.12,5.12,0,0,0,2.13-.4l.23,1a6.22,6.22,0,0,1-2.55.48A3.57,3.57,0,0,1,61,46.52c0-2.32,1.37-4.14,3.61-4.14,2.5,0,3.17,2.2,3.17,3.61a4.38,4.38,0,0,1,0,.65Zm4.09-1a2,2,0,0,0-1.94-2.27,2.32,2.32,0,0,0-2.14,2.27Z"/><path class="cls-2" d="M71.22,40.34v2.21h2v1.06h-2v4.14c0,1,.27,1.5,1,1.5a3,3,0,0,0,.81-.1l.06,1.05a3.46,3.46,0,0,1-1.24.19,2,2,0,0,1-1.51-.59,2.87,2.87,0,0,1-.53-2V43.61h-1.2V42.55h1.2V40.71Z"/><path class="cls-2" d="M79,50.23l-.11-1h-.05a2.84,2.84,0,0,1-2.35,1.14,2.18,2.18,0,0,1-2.34-2.2c0-1.86,1.65-2.87,4.61-2.86v-.16a1.58,1.58,0,0,0-1.74-1.77,3.81,3.81,0,0,0-2,.57l-.32-.92a4.72,4.72,0,0,1,2.52-.68c2.35,0,2.92,1.6,2.92,3.14v2.87a11.28,11.28,0,0,0,.13,1.84Zm-.2-3.92c-1.53,0-3.26.24-3.26,1.73a1.24,1.24,0,0,0,1.32,1.33,1.92,1.92,0,0,0,1.86-1.28,1.78,1.78,0,0,0,.08-.45Z"/><path class="cls-2" d="M92.43,39v9.29c0,.68,0,1.46.07,2H91.24l-.06-1.33h0a2.86,2.86,0,0,1-2.62,1.5c-1.86,0-3.29-1.57-3.29-3.9,0-2.55,1.58-4.12,3.45-4.12A2.55,2.55,0,0,1,91,43.55h0V39ZM91,45.68a2.32,2.32,0,0,0-.07-.59,2,2,0,0,0-2-1.62c-1.45,0-2.3,1.27-2.3,3s.76,2.84,2.27,2.84a2.09,2.09,0,0,0,2-1.67A2.3,2.3,0,0,0,91,47Z"/><path class="cls-2" d="M95.53,46.64a2.46,2.46,0,0,0,2.63,2.67,5.12,5.12,0,0,0,2.13-.4l.23,1a6.22,6.22,0,0,1-2.55.48,3.57,3.57,0,0,1-3.78-3.87c0-2.32,1.37-4.14,3.6-4.14,2.51,0,3.18,2.2,3.18,3.61a4.38,4.38,0,0,1,0,.65Zm4.09-1a2,2,0,0,0-1.94-2.27,2.32,2.32,0,0,0-2.14,2.27Z"/><path class="cls-2" d="M110.31,50.23l-.11-1h0a2.82,2.82,0,0,1-2.34,1.14,2.18,2.18,0,0,1-2.35-2.2c0-1.86,1.65-2.87,4.61-2.86v-.16a1.58,1.58,0,0,0-1.74-1.77,3.81,3.81,0,0,0-2,.57l-.32-.92a4.72,4.72,0,0,1,2.52-.68c2.35,0,2.92,1.6,2.92,3.14v2.87a11.28,11.28,0,0,0,.13,1.84Zm-.2-3.92c-1.53,0-3.26.24-3.26,1.73a1.24,1.24,0,0,0,1.32,1.33A1.92,1.92,0,0,0,110,48.09a1.78,1.78,0,0,0,.08-.45Z"/><path class="cls-2" d="M113.71,45.06c0-1,0-1.78-.07-2.51h1.26l.06,1.32h0a3,3,0,0,1,2.73-1.49c1.86,0,3.25,1.57,3.25,3.9,0,2.76-1.68,4.12-3.49,4.12a2.69,2.69,0,0,1-2.36-1.2h0v4.17h-1.38Zm1.38,2a3.22,3.22,0,0,0,.06.57,2.16,2.16,0,0,0,2.1,1.64c1.47,0,2.33-1.21,2.33-3,0-1.54-.81-2.85-2.29-2.85a2.23,2.23,0,0,0-2.11,1.73,2.12,2.12,0,0,0-.09.57Z"/><path class="cls-2" d="M123.51,46.64a2.46,2.46,0,0,0,2.64,2.67,5,5,0,0,0,2.12-.4l.24,1a6.22,6.22,0,0,1-2.55.48,3.57,3.57,0,0,1-3.78-3.87c0-2.32,1.36-4.14,3.6-4.14,2.51,0,3.17,2.2,3.17,3.61,0,.29,0,.51,0,.65Zm4.1-1a2,2,0,0,0-1.94-2.27,2.32,2.32,0,0,0-2.14,2.27Z"/><path class="cls-2" d="M130.68,45c0-.91,0-1.69-.06-2.4h1.22l0,1.51H132a2.31,2.31,0,0,1,2.13-1.68,1.64,1.64,0,0,1,.4,0v1.32a2.28,2.28,0,0,0-.48-.05,2,2,0,0,0-1.87,1.8,3.16,3.16,0,0,0-.07.65v4.09h-1.38Z"/><path class="cls-2" d="M137.93,40.34v2.21h2v1.06h-2v4.14c0,1,.27,1.5,1,1.5a3,3,0,0,0,.81-.1l.06,1.05a3.4,3.4,0,0,1-1.23.19,1.93,1.93,0,0,1-1.51-.59,2.82,2.82,0,0,1-.54-2V43.61h-1.19V42.55h1.19V40.71Z"/><path class="cls-2" d="M147.93,48.14c0,.79,0,1.49.06,2.09h-1.23L146.68,49h0a2.87,2.87,0,0,1-2.53,1.42c-1.21,0-2.66-.66-2.66-3.36V42.55h1.4V46.8c0,1.46.45,2.45,1.72,2.45A2,2,0,0,0,146.41,48a2.05,2.05,0,0,0,.12-.72V42.55h1.4Z"/><path class="cls-2" d="M150.24,45c0-.91,0-1.69-.06-2.4h1.22l0,1.51h.06a2.31,2.31,0,0,1,2.13-1.68,1.64,1.64,0,0,1,.4,0v1.32a2.28,2.28,0,0,0-.48-.05,2,2,0,0,0-1.87,1.8,4.12,4.12,0,0,0-.06.65v4.09h-1.39Z"/><path class="cls-2" d="M159.61,50.23l-.11-1h-.05a2.85,2.85,0,0,1-2.35,1.14,2.18,2.18,0,0,1-2.35-2.2c0-1.86,1.65-2.87,4.62-2.86v-.16a1.58,1.58,0,0,0-1.75-1.77,3.83,3.83,0,0,0-2,.57l-.31-.92a4.67,4.67,0,0,1,2.52-.68c2.35,0,2.92,1.6,2.92,3.14v2.87a10.27,10.27,0,0,0,.13,1.84Zm-.21-3.92c-1.52,0-3.25.24-3.25,1.73a1.23,1.23,0,0,0,1.31,1.33,1.91,1.91,0,0,0,1.86-1.28,1.42,1.42,0,0,0,.08-.45Z"/><path class="cls-2" d="M45,80.14l7.36-3.79v1.09l-6.21,3.11v0l6.21,3.11v1.1L45,81Z"/><path class="cls-3" d="M54.58,79.62c0-1,0-1.78-.06-2.51h1.25l.07,1.32h0a3,3,0,0,1,2.73-1.5c1.85,0,3.25,1.58,3.25,3.91,0,2.76-1.68,4.12-3.49,4.12A2.68,2.68,0,0,1,56,83.76h0v4.17H54.58Zm1.38,2a3.17,3.17,0,0,0,.07.57,2.15,2.15,0,0,0,2.09,1.64c1.48,0,2.33-1.21,2.33-3,0-1.54-.8-2.85-2.28-2.85a2.23,2.23,0,0,0-2.11,1.73,2.13,2.13,0,0,0-.1.57Z"/><path class="cls-1" d="M72.45,84.5a5.18,5.18,0,0,1-2.21.45A3.65,3.65,0,0,1,66.42,81,3.9,3.9,0,0,1,70.54,77a4.67,4.67,0,0,1,1.94.4l-.32,1.08a3.21,3.21,0,0,0-1.62-.37,2.9,2.9,0,0,0,0,5.78,4,4,0,0,0,1.71-.38Z"/><path class="cls-1" d="M74.08,73.52h1.4V84.79h-1.4Z"/><path class="cls-1" d="M82.08,84.79l-.11-1h0A2.87,2.87,0,0,1,79.57,85a2.19,2.19,0,0,1-2.35-2.2c0-1.86,1.65-2.87,4.62-2.86v-.16A1.58,1.58,0,0,0,80.09,78a3.77,3.77,0,0,0-2,.57l-.32-.92a4.67,4.67,0,0,1,2.52-.69c2.35,0,2.92,1.61,2.92,3.15V83a10.27,10.27,0,0,0,.13,1.84Zm-.21-3.92c-1.52,0-3.25.24-3.25,1.73a1.24,1.24,0,0,0,1.32,1.33,1.9,1.9,0,0,0,1.85-1.28,1.42,1.42,0,0,0,.08-.45Z"/><path class="cls-1" d="M85.28,83.36a3.67,3.67,0,0,0,1.84.56c1,0,1.49-.51,1.49-1.15s-.39-1-1.42-1.41c-1.38-.49-2-1.25-2-2.17a2.37,2.37,0,0,1,2.65-2.26,3.84,3.84,0,0,1,1.88.48l-.35,1A3,3,0,0,0,87.77,78c-.82,0-1.28.48-1.28,1S87,80,88,80.33c1.33.51,2,1.18,2,2.32,0,1.35-1,2.3-2.87,2.3a4.36,4.36,0,0,1-2.16-.53Z"/><path class="cls-1" d="M91.57,83.36a3.64,3.64,0,0,0,1.84.56c1,0,1.49-.51,1.49-1.15s-.4-1-1.43-1.41c-1.38-.49-2-1.25-2-2.17a2.37,2.37,0,0,1,2.65-2.26,3.88,3.88,0,0,1,1.89.48l-.35,1A3,3,0,0,0,94.06,78c-.83,0-1.29.48-1.29,1s.46.92,1.46,1.3c1.33.51,2,1.18,2,2.32,0,1.35-1,2.3-2.88,2.3a4.32,4.32,0,0,1-2.15-.53Z"/><path class="cls-1" d="M97.52,79.44v-1h8.18v1Zm0,3.11v-1h8.18v1Z"/><path class="cls-1" d="M109.24,73.92a19.66,19.66,0,0,1-1.47,3.76l-.89.11a23.92,23.92,0,0,0,.93-3.73Zm2.35,0a19.61,19.61,0,0,1-1.48,3.76l-.89.11a21.86,21.86,0,0,0,.94-3.73Z"/><path class="cls-1" d="M113.25,84.79V78.17h-1.07V77.11h1.07v-.37a3.63,3.63,0,0,1,.89-2.68,2.67,2.67,0,0,1,1.88-.71,3.27,3.27,0,0,1,1.19.22L117,74.65a2,2,0,0,0-.89-.18c-1.19,0-1.5,1-1.5,2.23v.41h1.86v1.06h-1.86v6.62Z"/><path class="cls-1" d="M124.49,80.89A3.75,3.75,0,0,1,120.66,85,3.65,3.65,0,0,1,117,81a3.75,3.75,0,0,1,3.81-4.08A3.64,3.64,0,0,1,124.49,80.89ZM118.4,81c0,1.69,1,3,2.33,3s2.33-1.26,2.33-3c0-1.3-.65-3-2.3-3S118.4,79.51,118.4,81Z"/><path class="cls-1" d="M126.25,79.19c0-.8,0-1.45-.07-2.08h1.24l.08,1.27h0a2.83,2.83,0,0,1,2.54-1.45c1.07,0,2.72.64,2.72,3.27v4.59h-1.4V80.36c0-1.24-.46-2.27-1.78-2.27a2,2,0,0,0-1.87,1.43,2.11,2.11,0,0,0-.1.65v4.62h-1.39Z"/><path class="cls-1" d="M141.69,73.52v9.29c0,.68,0,1.46.06,2H140.5l-.07-1.33h0a2.85,2.85,0,0,1-2.62,1.5c-1.85,0-3.28-1.57-3.28-3.9,0-2.55,1.57-4.13,3.44-4.13a2.57,2.57,0,0,1,2.32,1.18h0V73.52Zm-1.4,6.72a2.32,2.32,0,0,0-.06-.59,2.06,2.06,0,0,0-2-1.62c-1.44,0-2.3,1.27-2.3,3,0,1.55.76,2.84,2.27,2.84a2.11,2.11,0,0,0,2-1.67,2.31,2.31,0,0,0,.06-.6Z"/><path class="cls-1" d="M151,80.89A3.74,3.74,0,0,1,147.13,85,3.65,3.65,0,0,1,143.45,81a3.75,3.75,0,0,1,3.81-4.08A3.64,3.64,0,0,1,151,80.89Zm-6.09.07c0,1.69,1,3,2.33,3s2.33-1.26,2.33-3c0-1.3-.65-3-2.3-3S144.86,79.51,144.86,81Z"/><path class="cls-1" d="M153.93,73.92a19,19,0,0,1-1.47,3.76l-.89.11a25.08,25.08,0,0,0,.94-3.73Zm2.35,0a19,19,0,0,1-1.47,3.76l-.89.11a21.87,21.87,0,0,0,.93-3.73Z"/><path class="cls-2" d="M165.06,81l-7.37,3.78v-1.1L164,80.58v0l-6.26-3.11V76.35l7.37,3.77Z"/><path class="cls-4" d="M175.42,75.27h-3.26V74.09h7.92v1.18h-3.27v9.52h-1.39Z"/><path class="cls-4" d="M180.87,81.2a2.47,2.47,0,0,0,2.64,2.67,5,5,0,0,0,2.12-.4l.24,1a6.22,6.22,0,0,1-2.55.48,3.57,3.57,0,0,1-3.78-3.87c0-2.32,1.37-4.15,3.6-4.15,2.51,0,3.18,2.21,3.18,3.62a6.41,6.41,0,0,1,0,.65Zm4.1-1A2,2,0,0,0,183,77.93a2.32,2.32,0,0,0-2.14,2.27Z"/><path class="cls-4" d="M188.65,77.11l1.09,1.65c.29.43.53.82.78,1.25h0c.25-.46.5-.85.76-1.27l1.08-1.63h1.51l-2.62,3.71,2.69,4h-1.58l-1.13-1.73c-.3-.44-.55-.87-.82-1.33h0c-.25.46-.52.87-.81,1.33l-1.11,1.73H187l2.73-3.92-2.6-3.76Z"/><path class="cls-4" d="M197.23,74.9v2.21h2v1.06h-2v4.14c0,1,.27,1.5,1.05,1.5a3,3,0,0,0,.81-.1l.06,1.05a3.46,3.46,0,0,1-1.24.19,1.92,1.92,0,0,1-1.5-.59,2.82,2.82,0,0,1-.55-2V78.17h-1.18V77.11h1.18V75.27Z"/><path class="cls-4" d="M207.66,80.89A3.75,3.75,0,0,1,203.83,85,3.65,3.65,0,0,1,200.15,81,3.75,3.75,0,0,1,204,76.93,3.65,3.65,0,0,1,207.66,80.89Zm-6.1.07c0,1.69,1,3,2.33,3s2.34-1.26,2.34-3c0-1.3-.65-3-2.3-3S201.56,79.51,201.56,81Z"/><path class="cls-4" d="M219.41,73.52v9.29c0,.68,0,1.46.06,2h-1.25l-.06-1.33h0a2.83,2.83,0,0,1-2.61,1.5c-1.86,0-3.29-1.57-3.29-3.9,0-2.55,1.57-4.13,3.45-4.13A2.56,2.56,0,0,1,218,78.11h0V73.52ZM218,80.24a2.32,2.32,0,0,0-.06-.59,2.06,2.06,0,0,0-2-1.62c-1.45,0-2.31,1.27-2.31,3,0,1.55.77,2.84,2.27,2.84a2.1,2.1,0,0,0,2-1.67,2.31,2.31,0,0,0,.06-.6Z"/><path class="cls-4" d="M222.5,81.2a2.46,2.46,0,0,0,2.64,2.67,5,5,0,0,0,2.12-.4l.24,1A6.22,6.22,0,0,1,225,85a3.57,3.57,0,0,1-3.78-3.87c0-2.32,1.36-4.15,3.6-4.15,2.51,0,3.18,2.21,3.18,3.62a6.41,6.41,0,0,1,0,.65Zm4.1-1a2,2,0,0,0-1.94-2.27,2.32,2.32,0,0,0-2.14,2.27Z"/><path class="cls-4" d="M229.67,73.52h1.4V84.79h-1.4Z"/><path class="cls-4" d="M242.26,84.5a5.18,5.18,0,0,1-2.21.45A3.64,3.64,0,0,1,236.23,81,3.89,3.89,0,0,1,240.35,77a4.67,4.67,0,0,1,1.94.4L242,78.43a3.24,3.24,0,0,0-1.62-.37,2.9,2.9,0,0,0,0,5.78,4.06,4.06,0,0,0,1.72-.38Z"/><path class="cls-4" d="M250.74,80.89A3.74,3.74,0,0,1,246.92,85,3.65,3.65,0,0,1,243.24,81a3.75,3.75,0,0,1,3.81-4.08A3.64,3.64,0,0,1,250.74,80.89Zm-6.09.07c0,1.69,1,3,2.33,3s2.34-1.26,2.34-3c0-1.3-.66-3-2.31-3S244.65,79.51,244.65,81Z"/><path class="cls-4" d="M252.5,79.19c0-.8,0-1.45-.06-2.08h1.24l.08,1.27h0a2.83,2.83,0,0,1,2.54-1.45c1.06,0,2.71.64,2.71,3.27v4.59h-1.4V80.36c0-1.24-.46-2.27-1.77-2.27A2,2,0,0,0,254,79.52a2.13,2.13,0,0,0-.09.65v4.62h-1.4Z"/><path class="cls-4" d="M262.93,74.9v2.21h2v1.06h-2v4.14c0,1,.27,1.5,1,1.5a2.92,2.92,0,0,0,.81-.1l.07,1.05a3.46,3.46,0,0,1-1.24.19,2,2,0,0,1-1.51-.59,2.82,2.82,0,0,1-.54-2V78.17h-1.19V77.11h1.19V75.27Z"/><path class="cls-4" d="M267.18,81.2a2.46,2.46,0,0,0,2.63,2.67,5.08,5.08,0,0,0,2.13-.4l.24,1a6.27,6.27,0,0,1-2.56.48,3.57,3.57,0,0,1-3.77-3.87c0-2.32,1.36-4.15,3.6-4.15,2.51,0,3.17,2.21,3.17,3.62a4.38,4.38,0,0,1-.05.65Zm4.09-1a2,2,0,0,0-1.93-2.27,2.31,2.31,0,0,0-2.14,2.27Z"/><path class="cls-4" d="M274.35,79.19c0-.8,0-1.45-.06-2.08h1.23l.08,1.27h0a2.84,2.84,0,0,1,2.54-1.45c1.07,0,2.72.64,2.72,3.27v4.59h-1.4V80.36c0-1.24-.46-2.27-1.78-2.27a2,2,0,0,0-1.87,1.43,2.13,2.13,0,0,0-.09.65v4.62h-1.4Z"/><path class="cls-4" d="M284.71,75a.82.82,0,0,1-.89.86A.83.83,0,0,1,283,75a.85.85,0,0,1,.87-.87A.83.83,0,0,1,284.71,75Zm-1.55,9.84V77.11h1.39v7.68Z"/><path class="cls-4" d="M293.5,73.52v9.29c0,.68,0,1.46.07,2h-1.26l-.06-1.33h0A2.86,2.86,0,0,1,289.6,85c-1.86,0-3.29-1.57-3.29-3.9,0-2.55,1.57-4.13,3.45-4.13a2.56,2.56,0,0,1,2.31,1.18h0V73.52Zm-1.39,6.72a2.32,2.32,0,0,0-.07-.59A2,2,0,0,0,290,78c-1.45,0-2.3,1.27-2.3,3,0,1.55.76,2.84,2.26,2.84A2.1,2.1,0,0,0,292,82.17a2.3,2.3,0,0,0,.07-.6Z"/><path class="cls-4" d="M302.77,80.89A3.75,3.75,0,0,1,298.94,85,3.65,3.65,0,0,1,295.26,81a3.75,3.75,0,0,1,3.81-4.08A3.64,3.64,0,0,1,302.77,80.89Zm-6.1.07c0,1.69,1,3,2.34,3s2.33-1.26,2.33-3c0-1.3-.65-3-2.3-3S296.67,79.51,296.67,81Z"/><path class="cls-2" d="M307.78,80.14l7.36-3.79v1.09l-6.2,3.11v0l6.2,3.11v1.1L307.78,81Z"/><path class="cls-2" d="M316.17,85.42l4.43-11.5h1.08l-4.45,11.5Z"/><path class="cls-5" d="M322.79,79.62c0-1,0-1.78-.07-2.51H324l.06,1.32h0a3,3,0,0,1,2.73-1.5c1.86,0,3.26,1.58,3.26,3.91,0,2.76-1.69,4.12-3.5,4.12a2.69,2.69,0,0,1-2.36-1.2h0v4.17h-1.38Zm1.38,2a3.22,3.22,0,0,0,.06.57,2.17,2.17,0,0,0,2.1,1.64c1.47,0,2.33-1.21,2.33-3,0-1.54-.81-2.85-2.29-2.85a2.23,2.23,0,0,0-2.11,1.73,2.61,2.61,0,0,0-.09.57Z"/><path class="cls-2" d="M339.07,81l-7.37,3.78v-1.1L338,80.58v0l-6.26-3.11V76.35l7.37,3.77Z"/><line class="cls-6" x1="149.34" y1="97.73" x2="149.34" y2="89.73"/><path class="cls-2" d="M292.78,46.64a2.46,2.46,0,0,0,2.63,2.67,5.08,5.08,0,0,0,2.13-.4l.24,1a6.23,6.23,0,0,1-2.56.48,3.57,3.57,0,0,1-3.77-3.87c0-2.32,1.36-4.14,3.6-4.14,2.51,0,3.17,2.2,3.17,3.61,0,.29,0,.51,0,.65Zm4.09-1a2,2,0,0,0-1.93-2.27,2.32,2.32,0,0,0-2.14,2.27Z"/><path class="cls-2" d="M301.63,40.34v2.21h2v1.06h-2v4.14c0,1,.27,1.5,1.05,1.5a3,3,0,0,0,.81-.1l.06,1.05a3.4,3.4,0,0,1-1.23.19,1.93,1.93,0,0,1-1.51-.59,2.82,2.82,0,0,1-.54-2V43.61h-1.19V42.55h1.19V40.71Z"/><path class="cls-2" d="M306.76,40.39a.87.87,0,0,1-1.73,0,.85.85,0,0,1,.87-.87A.83.83,0,0,1,306.76,40.39Zm-1.56,9.84V42.55h1.4v7.68Z"/><path class="cls-2" d="M314.15,49h0a2.73,2.73,0,0,1-2.51,1.36c-1.79,0-3.25-1.55-3.25-3.88,0-2.88,1.86-4.14,3.47-4.14a2.51,2.51,0,0,1,2.37,1.33h0l0-1.16h1.32c0,.65-.05,1.32-.05,2.11v8.71h-1.4Zm0-3.38a2.32,2.32,0,0,0-.06-.59,2,2,0,0,0-2-1.58c-1.45,0-2.32,1.22-2.32,2.95,0,1.52.73,2.85,2.27,2.85a2.07,2.07,0,0,0,2-1.52,2.47,2.47,0,0,0,.11-.67Z"/><path class="cls-2" d="M324.27,48.14c0,.79,0,1.49.07,2.09H323.1L323,49h0a2.9,2.9,0,0,1-2.54,1.42c-1.21,0-2.65-.66-2.65-3.36V42.55h1.4V46.8c0,1.46.44,2.45,1.71,2.45A2,2,0,0,0,322.75,48a2.05,2.05,0,0,0,.13-.72V42.55h1.39Z"/><path class="cls-2" d="M327.37,46.64A2.46,2.46,0,0,0,330,49.31a5.12,5.12,0,0,0,2.13-.4l.23,1a6.22,6.22,0,0,1-2.55.48A3.57,3.57,0,0,1,326,46.52c0-2.32,1.37-4.14,3.61-4.14,2.5,0,3.17,2.2,3.17,3.61a4.38,4.38,0,0,1-.05.65Zm4.09-1a2,2,0,0,0-1.93-2.27,2.32,2.32,0,0,0-2.15,2.27Z"/><path class="cls-2" d="M336.22,40.34v2.21h2v1.06h-2v4.14c0,1,.27,1.5,1,1.5a3,3,0,0,0,.81-.1l.06,1.05a3.46,3.46,0,0,1-1.24.19,2,2,0,0,1-1.51-.59,2.87,2.87,0,0,1-.53-2V43.61h-1.2V42.55h1.2V40.71Z"/><path class="cls-2" d="M344,50.23l-.11-1h-.05a2.84,2.84,0,0,1-2.35,1.14,2.18,2.18,0,0,1-2.34-2.2c0-1.86,1.65-2.87,4.61-2.86v-.16a1.58,1.58,0,0,0-1.74-1.77,3.81,3.81,0,0,0-2,.57l-.32-.92a4.72,4.72,0,0,1,2.52-.68c2.35,0,2.92,1.6,2.92,3.14v2.87a11.28,11.28,0,0,0,.13,1.84Zm-.2-3.92c-1.53,0-3.26.24-3.26,1.73a1.24,1.24,0,0,0,1.32,1.33,1.92,1.92,0,0,0,1.86-1.28,1.78,1.78,0,0,0,.08-.45Z"/><path class="cls-2" d="M357.43,39v9.29c0,.68,0,1.46.07,2h-1.26l-.06-1.33h0a2.86,2.86,0,0,1-2.62,1.5c-1.86,0-3.29-1.57-3.29-3.9,0-2.55,1.58-4.12,3.45-4.12A2.55,2.55,0,0,1,356,43.55h0V39ZM356,45.68a2.32,2.32,0,0,0-.07-.59,2,2,0,0,0-2-1.62c-1.45,0-2.3,1.27-2.3,3s.76,2.84,2.27,2.84a2.09,2.09,0,0,0,2-1.67A2.3,2.3,0,0,0,356,47Z"/><path class="cls-2" d="M360.53,46.64a2.46,2.46,0,0,0,2.63,2.67,5.12,5.12,0,0,0,2.13-.4l.23,1a6.22,6.22,0,0,1-2.55.48,3.57,3.57,0,0,1-3.78-3.87c0-2.32,1.37-4.14,3.6-4.14,2.51,0,3.18,2.2,3.18,3.61a4.38,4.38,0,0,1-.05.65Zm4.09-1a2,2,0,0,0-1.94-2.27,2.32,2.32,0,0,0-2.14,2.27Z"/><path class="cls-2" d="M376.53,49.94a5.09,5.09,0,0,1-2.2.45,3.65,3.65,0,0,1-3.83-3.92,3.9,3.9,0,0,1,4.13-4.08,4.71,4.71,0,0,1,1.94.4l-.32,1.08a3.24,3.24,0,0,0-1.62-.37,2.66,2.66,0,0,0-2.71,2.91,2.63,2.63,0,0,0,2.66,2.87,4.06,4.06,0,0,0,1.72-.38Z"/><path class="cls-2" d="M379.72,40.39a.82.82,0,0,1-.89.86.83.83,0,0,1-.84-.86.85.85,0,0,1,.87-.87A.83.83,0,0,1,379.72,40.39Zm-1.55,9.84V42.55h1.39v7.68Z"/><path class="cls-2" d="M382.66,46.64a2.46,2.46,0,0,0,2.63,2.67,5.12,5.12,0,0,0,2.13-.4l.24,1a6.31,6.31,0,0,1-2.56.48,3.57,3.57,0,0,1-3.78-3.87c0-2.32,1.37-4.14,3.61-4.14,2.5,0,3.17,2.2,3.17,3.61a4.38,4.38,0,0,1-.05.65Zm4.09-1a2,2,0,0,0-1.93-2.27,2.32,2.32,0,0,0-2.15,2.27Z"/><path class="cls-2" d="M389.83,45c0-.91,0-1.69-.07-2.4H391l0,1.51h.07a2.3,2.3,0,0,1,2.12-1.68,1.64,1.64,0,0,1,.4,0v1.32a2.14,2.14,0,0,0-.48-.05,2,2,0,0,0-1.87,1.8,4.12,4.12,0,0,0-.06.65v4.09h-1.38Z"/><path class="cls-2" d="M395.08,45c0-.91,0-1.69-.06-2.4h1.22l.05,1.51h.06a2.31,2.31,0,0,1,2.13-1.68,1.56,1.56,0,0,1,.39,0v1.32a2.12,2.12,0,0,0-.47-.05,2,2,0,0,0-1.88,1.8,4.12,4.12,0,0,0-.06.65v4.09h-1.38Z"/><path class="cls-2" d="M400.89,46.64a2.46,2.46,0,0,0,2.63,2.67,5.12,5.12,0,0,0,2.13-.4l.24,1a6.31,6.31,0,0,1-2.56.48,3.57,3.57,0,0,1-3.78-3.87c0-2.32,1.37-4.14,3.61-4.14,2.5,0,3.17,2.2,3.17,3.61a4.38,4.38,0,0,1-.05.65Zm4.09-1a2,2,0,0,0-1.93-2.27,2.33,2.33,0,0,0-2.15,2.27Z"/><line class="cls-6" x1="67.34" y1="97.73" x2="67.34" y2="89.73"/><path d="M180.25,12.71h-3.93v2.54h4.39v2h-6.82V6.53h6.6v2h-4.17v2.22h3.93Z"/><path d="M184.89,7.25V9.47h1.73v1.78h-1.73v2.81c0,.93.22,1.36,1,1.36a4.08,4.08,0,0,0,.71-.06l0,1.82a4.65,4.65,0,0,1-1.57.21,2.49,2.49,0,0,1-1.81-.67,3.18,3.18,0,0,1-.67-2.3V11.25h-1V9.47h1V7.79Z"/><path d="M190.5,7.31a1.21,1.21,0,0,1-1.3,1.21A1.18,1.18,0,0,1,188,7.31a1.17,1.17,0,0,1,1.27-1.22A1.2,1.2,0,0,1,190.5,7.31ZM188,17.23V9.47h2.41v7.76Z"/><path d="M197.47,16.26h0a2.63,2.63,0,0,1-2.3,1.14c-1.69,0-3.23-1.47-3.23-3.95,0-2.77,1.78-4.15,3.43-4.15a2.34,2.34,0,0,1,2.16,1.07h0l.07-.9h2.33c0,.75-.05,1.52-.05,2.33v8.57h-2.41Zm0-3.54a1.74,1.74,0,0,0-.05-.39A1.42,1.42,0,0,0,196,11.17c-1.11,0-1.67.93-1.67,2.19S195,15.5,196,15.5a1.44,1.44,0,0,0,1.4-1.09,2.39,2.39,0,0,0,.06-.53Z"/><path d="M209.11,14.74c0,1,0,1.84.07,2.49h-2.1l-.11-1.1h-.05a2.75,2.75,0,0,1-2.42,1.27c-1.57,0-2.73-1-2.73-3.38V9.47h2.42v4.17c0,1.13.37,1.81,1.21,1.81a1.3,1.3,0,0,0,1.21-.84,1.39,1.39,0,0,0,.08-.52V9.47h2.42Z"/><path d="M212.9,14.12c.08,1,1.07,1.48,2.19,1.48a7,7,0,0,0,2.15-.32l.31,1.63a7.57,7.57,0,0,1-2.8.48c-2.64,0-4.15-1.52-4.15-4a3.89,3.89,0,0,1,3.92-4.14c2.51,0,3.46,1.95,3.46,3.87a4.89,4.89,0,0,1-.08.95Zm2.84-1.65a1.4,1.4,0,0,0-1.36-1.57,1.58,1.58,0,0,0-1.49,1.57Z"/><path d="M222.12,7.25V9.47h1.73v1.78h-1.73v2.81c0,.93.22,1.36.95,1.36a4.21,4.21,0,0,0,.72-.06v1.82a4.57,4.57,0,0,1-1.57.21,2.53,2.53,0,0,1-1.81-.67,3.23,3.23,0,0,1-.66-2.3V11.25h-1V9.47h1V7.79Z"/><path d="M229.66,17.23l-.14-.78h-.05a2.79,2.79,0,0,1-2.22.95A2.38,2.38,0,0,1,224.74,15c0-2,1.81-3,4.55-3V12c0-.42-.22-1-1.41-1a4.45,4.45,0,0,0-2.14.58L225.3,10a6.38,6.38,0,0,1,3-.68c2.59,0,3.41,1.52,3.41,3.34v2.7a12,12,0,0,0,.11,1.89Zm-.29-3.67c-1.27,0-2.25.29-2.25,1.23a.86.86,0,0,0,.95.92,1.32,1.32,0,0,0,1.26-.89,1.84,1.84,0,0,0,0-.41Z"/><path d="M239.34,6.53v4.11h4V6.53h2.41v10.7h-2.41V12.76h-4v4.47h-2.43V6.53Z"/><path d="M249.9,8.57H247v-2h8.22v2h-2.92v8.66H249.9Z"/><path d="M265.52,13.14c0-1.29-.1-2.84-.1-4.4h-.05c-.33,1.36-.77,2.89-1.19,4.14l-1.3,4.18H261l-1.14-4.15c-.35-1.25-.71-2.77-1-4.17h0c-.06,1.44-.11,3.09-.19,4.43l-.19,4.06h-2.24l.69-10.7h3.22l1,3.57c.34,1.24.67,2.58.91,3.83h.05c.3-1.24.66-2.65,1-3.84l1.14-3.56h3.16l.59,10.7h-2.36Z"/><path d="M269.89,6.53h2.43V15.2h4.25v2h-6.68Z"/><line class="cls-7" x1="225.84" y1="36.73" x2="225.84" y2="29.73"/><line class="cls-7" x1="327.84" y1="36.73" x2="327.84" y2="29.73"/><line class="cls-7" x1="225.84" y1="30.73" x2="225.84" y2="23.73"/><line class="cls-8" x1="104.09" y1="30.23" x2="327.09" y2="30.23"/><line class="cls-7" x1="171.84" y1="67.73" x2="171.84" y2="60.73"/><line class="cls-7" x1="163.84" y1="67.73" x2="163.84" y2="60.73"/><line class="cls-7" x1="301.84" y1="67.73" x2="301.84" y2="60.73"/><line class="cls-7" x1="171.84" y1="61.23" x2="301.84" y2="61.23"/><path class="cls-2" d="M204.48,49.94a5,5,0,0,1-2.21.45,3.64,3.64,0,0,1-3.82-3.92,3.91,3.91,0,0,1,4.12-4.08,4.67,4.67,0,0,1,1.94.4l-.32,1.08a3.24,3.24,0,0,0-1.62-.37,2.66,2.66,0,0,0-2.71,2.91,2.63,2.63,0,0,0,2.67,2.87,4,4,0,0,0,1.71-.38Z"/><path class="cls-2" d="M213,46.33a3.76,3.76,0,0,1-3.83,4.08,3.66,3.66,0,0,1-3.68-4,3.74,3.74,0,0,1,3.81-4.07A3.64,3.64,0,0,1,213,46.33Zm-6.1.08c0,1.68,1,3,2.33,3s2.34-1.26,2.34-3c0-1.3-.65-2.95-2.3-2.95S206.87,45,206.87,46.41Z"/><path class="cls-2" d="M214.73,44.63c0-.79,0-1.45-.07-2.08h1.24l.08,1.27h0a2.82,2.82,0,0,1,2.54-1.44c1.06,0,2.71.63,2.71,3.26v4.59h-1.39V45.8c0-1.23-.46-2.27-1.78-2.27A2,2,0,0,0,216.22,45a1.85,1.85,0,0,0-.1.65v4.62h-1.39Z"/><path class="cls-2" d="M225.15,40.34v2.21h2v1.06h-2v4.15c0,1,.27,1.49,1,1.49a3,3,0,0,0,.81-.1l.06,1.05a3.46,3.46,0,0,1-1.24.19,2,2,0,0,1-1.51-.59,2.87,2.87,0,0,1-.54-2V43.61h-1.19V42.55h1.19V40.71Z"/><path class="cls-2" d="M229.4,46.64A2.46,2.46,0,0,0,232,49.31a4.93,4.93,0,0,0,2.13-.4l.24,1a6.07,6.07,0,0,1-2.56.48,3.57,3.57,0,0,1-3.77-3.87c0-2.32,1.36-4.14,3.6-4.14,2.51,0,3.17,2.2,3.17,3.61,0,.29,0,.51,0,.65Zm4.09-1a2,2,0,0,0-1.93-2.26,2.31,2.31,0,0,0-2.14,2.26Z"/><path class="cls-2" d="M236.57,44.63c0-.79,0-1.45-.06-2.08h1.24l.08,1.27h0a2.82,2.82,0,0,1,2.54-1.44c1.06,0,2.71.63,2.71,3.26v4.59h-1.4V45.8c0-1.23-.46-2.27-1.77-2.27A2,2,0,0,0,238.06,45a2.13,2.13,0,0,0-.09.65v4.62h-1.4Z"/><path class="cls-2" d="M246.93,40.39a.82.82,0,0,1-.89.86.83.83,0,0,1-.84-.86.85.85,0,0,1,.87-.87A.83.83,0,0,1,246.93,40.39Zm-1.55,9.84V42.55h1.39v7.68Z"/><path class="cls-2" d="M255.72,39v9.29c0,.68,0,1.46.07,2h-1.26l-.06-1.33h0a2.86,2.86,0,0,1-2.62,1.51c-1.86,0-3.29-1.58-3.29-3.91,0-2.55,1.58-4.12,3.45-4.12a2.55,2.55,0,0,1,2.31,1.17h0V39Zm-1.39,6.72a2.32,2.32,0,0,0-.07-.59,2,2,0,0,0-2-1.62c-1.45,0-2.3,1.27-2.3,3s.76,2.84,2.27,2.84a2.09,2.09,0,0,0,2-1.67,2.3,2.3,0,0,0,.07-.6Z"/><path class="cls-2" d="M265,46.33a3.76,3.76,0,0,1-3.83,4.08,3.66,3.66,0,0,1-3.68-4,3.74,3.74,0,0,1,3.81-4.07A3.63,3.63,0,0,1,265,46.33Zm-6.1.08c0,1.68,1,3,2.34,3s2.33-1.26,2.33-3c0-1.3-.65-2.95-2.3-2.95S258.89,45,258.89,46.41Z"/><line class="cls-7" x1="45.84" y1="67.73" x2="45.84" y2="60.73"/><line class="cls-7" x1="104.84" y1="61.73" x2="104.84" y2="54.73"/><line class="cls-8" x1="46.09" y1="61.23" x2="163.09" y2="61.23"/><line class="cls-7" x1="225.84" y1="61.73" x2="225.84" y2="54.73"/><line class="cls-7" x1="104.84" y1="36.73" x2="104.84" y2="29.73"/><line class="cls-7" x1="308.84" y1="67.73" x2="308.84" y2="60.73"/><line class="cls-7" x1="308.84" y1="61.23" x2="345.34" y2="61.23"/><line class="cls-7" x1="328.84" y1="61.73" x2="328.84" y2="54.73"/><line class="cls-7" x1="344.84" y1="68.73" x2="344.84" y2="61.73"/><line class="cls-9" x1="67.59" y1="97.23" x2="149.59" y2="97.23"/><line class="cls-6" x1="105.34" y1="105.73" x2="105.34" y2="97.73"/><path class="cls-10" d="M15,112.63c0-.79,0-1.45-.06-2.08h1.24l.08,1.27h0a2.82,2.82,0,0,1,2.54-1.44c1.06,0,2.71.63,2.71,3.26v4.59h-1.4V113.8c0-1.23-.46-2.27-1.77-2.27A2,2,0,0,0,16.49,113a2.13,2.13,0,0,0-.09.65v4.62H15Z"/><path class="cls-10" d="M30.76,114.33a3.76,3.76,0,0,1-3.83,4.08,3.66,3.66,0,0,1-3.68-4,3.74,3.74,0,0,1,3.81-4.07A3.63,3.63,0,0,1,30.76,114.33Zm-6.1.08c0,1.68,1,3,2.34,3s2.33-1.26,2.33-3c0-1.3-.65-3-2.3-3S24.66,113,24.66,114.41Z"/><path class="cls-10" d="M32.52,112.63c0-.79,0-1.45-.07-2.08h1.23l.06,1.24h0a2.64,2.64,0,0,1,2.41-1.41,2.25,2.25,0,0,1,2.17,1.54h0a2.93,2.93,0,0,1,.85-1,2.62,2.62,0,0,1,1.7-.54c1,0,2.52.66,2.52,3.33v4.52H42.12v-4.35c0-1.47-.54-2.36-1.67-2.36a1.8,1.8,0,0,0-1.65,1.27,2.39,2.39,0,0,0-.11.7v4.74H37.33v-4.6c0-1.22-.54-2.11-1.61-2.11A1.92,1.92,0,0,0,34,112.91a2,2,0,0,0-.11.69v4.63H32.52Z"/><path class="cls-10" d="M45.69,118.23c0-.52.06-1.3.06-2V107h1.38v4.83h0a2.85,2.85,0,0,1,2.62-1.41c1.9,0,3.25,1.58,3.24,3.92,0,2.74-1.73,4.11-3.45,4.11A2.73,2.73,0,0,1,47,117h0l-.07,1.27Zm1.44-3.08a2.74,2.74,0,0,0,.06.51,2.15,2.15,0,0,0,2.1,1.63c1.46,0,2.33-1.19,2.33-3,0-1.54-.79-2.85-2.28-2.85a2.22,2.22,0,0,0-2.13,1.71,2.89,2.89,0,0,0-.08.57Z"/><path class="cls-10" d="M54.78,113c0-.91,0-1.69-.07-2.4h1.23l0,1.51h.07a2.3,2.3,0,0,1,2.12-1.68,1.64,1.64,0,0,1,.4,0v1.32a2.21,2.21,0,0,0-.48,0,2,2,0,0,0-1.87,1.8,4.12,4.12,0,0,0-.06.65v4.09H54.78Z"/><path class="cls-10" d="M60.58,114.64a2.47,2.47,0,0,0,2.64,2.67,4.88,4.88,0,0,0,2.12-.4l.24,1a6.05,6.05,0,0,1-2.55.48,3.57,3.57,0,0,1-3.78-3.87c0-2.32,1.37-4.14,3.6-4.14,2.51,0,3.18,2.2,3.18,3.61a6.41,6.41,0,0,1,0,.65Zm4.1-1a2,2,0,0,0-1.94-2.26,2.31,2.31,0,0,0-2.14,2.26Z"/><line class="cls-11" x1="57.59" y1="104.98" x2="57.59" y2="89.98"/></svg>